<?xml version="1.0" encoding="UTF-8"?>
<svg version="1.1" xmlns="http://www.w3.org/2000/svg" width="220" height="64">
<path d="M0 0 C1.42258812 3.82320557 2.24042276 6.91281305 2 11 C2.9590625 11.1546875 2.9590625 11.1546875 3.9375 11.3125 C4.618125 11.539375 5.29875 11.76625 6 12 C6.495 13.485 6.495 13.485 7 15 C9.475 15.495 9.475 15.495 12 16 C12 16.66 12 17.32 12 18 C13.65 18.33 15.3 18.66 17 19 C17.495 20.98 17.495 20.98 18 23 C18.97582031 23.25394531 19.95164063 23.50789063 20.95703125 23.76953125 C22.22933594 24.11371094 23.50164063 24.45789063 24.8125 24.8125 C26.70935547 25.31716797 26.70935547 25.31716797 28.64453125 25.83203125 C31.85283008 26.94877322 32.98644069 27.41843665 35 30 C35.34057617 31.90112305 35.34057617 31.90112305 35.29296875 34.01171875 C35.28330078 34.76904297 35.27363281 35.52636719 35.26367188 36.30664062 C35.23853516 37.09232422 35.21339844 37.87800781 35.1875 38.6875 C35.16719727 39.88342773 35.16719727 39.88342773 35.14648438 41.10351562 C35.11117089 43.06929967 35.05736447 45.03473582 35 47 C27.91129741 51.96764569 22.12136361 52.70904565 13.59765625 52.55859375 C12.43874374 52.55626236 11.27983124 52.55393097 10.08580017 52.55152893 C7.65274627 52.54183467 5.21971345 52.52014844 2.78686523 52.48706055 C-0.95036927 52.43732875 -4.68629139 52.42555697 -8.42382812 52.41992188 C-10.79168078 52.40584758 -13.15952196 52.38964741 -15.52734375 52.37109375 C-16.64809799 52.36573105 -17.76885223 52.36036835 -18.92356873 52.35484314 C-19.95546829 52.33885574 -20.98736786 52.32286835 -22.05053711 52.30639648 C-22.96048935 52.29575668 -23.87044159 52.28511688 -24.80796814 52.27415466 C-27 52 -27 52 -29 50 C-29.25878906 47.3737793 -29.25878906 47.3737793 -29.265625 44.07421875 C-29.26820312 42.88505859 -29.27078125 41.69589844 -29.2734375 40.47070312 C-29.26570313 39.22224609 -29.25796875 37.97378906 -29.25 36.6875 C-29.25773437 35.45064453 -29.26546875 34.21378906 -29.2734375 32.93945312 C-29.27085938 31.74642578 -29.26828125 30.55339844 -29.265625 29.32421875 C-29.26336914 28.23197998 -29.26111328 27.13974121 -29.25878906 26.0144043 C-28.99619502 22.95567922 -28.13344699 20.8212974 -27 18 C-27.33 17.01 -27.66 16.02 -28 15 C-28.44402985 8.78358209 -28.44402985 8.78358209 -26.9375 6.125 C-24.08940077 4.47126497 -21.25753983 4.42032772 -18 4 C-14.95937438 3.11104633 -11.98322414 2.06378535 -9 1 C-5.8035914 -0.06546953 -3.34252724 -0.07427838 0 0 Z " fill="#0C0B09" transform="translate(29,6)"/>
<path d="M0 0 C0.33 0.99 0.66 1.98 1 3 C0.01 4.485 0.01 4.485 -1 6 C-1.45601261 8.50896686 -1.45601261 8.50896686 -1.625 11.1875 C-1.69976562 12.08855469 -1.77453125 12.98960938 -1.8515625 13.91796875 C-1.90054687 14.60503906 -1.94953125 15.29210938 -2 16 C1.27716643 16.32619944 3.90219161 16.1646614 7 15 C10.17693338 11.64048424 12.61225805 7.94920807 15 4 C15.99 4.33 16.98 4.66 18 5 C15.36 8.3 12.72 11.6 10 15 C11.3929126 14.98428955 11.3929126 14.98428955 12.81396484 14.96826172 C16.2542569 14.93420796 19.69437027 14.90911507 23.13476562 14.89013672 C24.6247032 14.88006957 26.11462097 14.86641482 27.60449219 14.84912109 C29.74419028 14.82490347 31.88362753 14.81352436 34.0234375 14.8046875 C35.31169434 14.79421387 36.59995117 14.78374023 37.92724609 14.77294922 C41 15 41 15 43 17 C39.79667766 17.9501315 36.9239887 18.12131773 33.58886719 18.11352539 C32.50804871 18.11344986 31.42723022 18.11337433 30.31365967 18.11329651 C29.15312073 18.10813522 27.99258179 18.10297394 26.796875 18.09765625 C25.60394836 18.0962413 24.41102173 18.09482635 23.1819458 18.09336853 C19.37127171 18.08777038 15.56065634 18.07521819 11.75 18.0625 C9.16666752 18.05748476 6.58333411 18.0529219 4 18.04882812 C-2.33335337 18.03780155 -8.66667249 18.02106524 -15 18 C-14.67 19.32 -14.34 20.64 -14 22 C5.8 22.495 5.8 22.495 26 23 C26 23.66 26 24.32 26 25 C20.19760386 25.04934656 14.39532919 25.08569402 8.59277344 25.10986328 C6.61781691 25.11993627 4.64287534 25.13359521 2.66796875 25.15087891 C-0.16670418 25.17507039 -3.00118038 25.18646991 -5.8359375 25.1953125 C-6.72243988 25.20563507 -7.60894226 25.21595764 -8.52230835 25.22659302 C-10.68285952 25.2269907 -12.84293718 25.12272534 -15 25 C-17 23 -17 23 -17.13525391 20.93701172 C-17.08288574 20.10959473 -17.03051758 19.28217773 -16.9765625 18.4296875 C-16.925 17.53378906 -16.8734375 16.63789062 -16.8203125 15.71484375 C-16.75585938 14.77769531 -16.69140625 13.84054688 -16.625 12.875 C-16.56828125 11.93011719 -16.5115625 10.98523437 -16.453125 10.01171875 C-16.31142903 7.67373519 -16.16000217 5.33679056 -16 3 C-9.25 3.75 -9.25 3.75 -7 6 C-6.8046875 8.3828125 -6.8046875 8.3828125 -6.875 11.125 C-6.89304687 12.03507812 -6.91109375 12.94515625 -6.9296875 13.8828125 C-6.95289063 14.58148438 -6.97609375 15.28015625 -7 16 C-6.01 16 -5.02 16 -4 16 C-4.04640625 15.26394531 -4.0928125 14.52789062 -4.140625 13.76953125 C-4.43910806 5.69982847 -4.43910806 5.69982847 -2 1.8125 C-1.34 1.214375 -0.68 0.61625 0 0 Z " fill="#16130E" transform="translate(17,33)"/>
<path d="M0 0 C-0.98530108 2.85737314 -1.92625726 3.94894733 -4.4375 5.6875 C-15.35677072 9.71038921 -28.24438685 7.91678532 -39.6875 7.5625 C-41.56443629 7.50916966 -43.44138946 7.45643039 -45.31835938 7.40429688 C-49.87912963 7.27634697 -54.43959653 7.14039357 -59 7 C-59.33 5.35 -59.66 3.7 -60 2 C-59.33236633 1.98969254 -58.66473267 1.97938507 -57.97686768 1.96876526 C-51.03395874 1.86066292 -44.09117861 1.74606773 -37.1484375 1.62768555 C-34.55666801 1.58434872 -31.96487021 1.54267275 -29.37304688 1.50268555 C-25.64965272 1.44495298 -21.92640096 1.3812667 -18.203125 1.31640625 C-17.04258606 1.29969376 -15.88204712 1.28298126 -14.68634033 1.26576233 C-13.06511261 1.2358445 -13.06511261 1.2358445 -11.41113281 1.20532227 C-10.46071106 1.18977798 -9.51028931 1.1742337 -8.53106689 1.15821838 C-5.60190467 0.97511484 -2.91308958 0 0 0 Z " fill="#A8A0A9" transform="translate(62,49)"/>
<path d="M0 0 C0.99 0.33 1.98 0.66 3 1 C3 2.98 3 4.96 3 7 C4.27875 6.690625 5.5575 6.38125 6.875 6.0625 C10.34052112 5.28084461 13.7104467 4.79230545 17.25 4.5 C20.83155602 4.19316888 23.74338811 3.62830594 27 2 C27 4.97 27 7.94 27 11 C22.45447643 12.75857606 18.71343148 13.23686694 13.8515625 13.1953125 C13.19417084 13.1924826 12.53677917 13.18965271 11.85946655 13.18673706 C9.78111767 13.17563447 7.70321634 13.15054986 5.625 13.125 C4.20703752 13.11495731 2.78906821 13.10583373 1.37109375 13.09765625 C-2.08608037 13.07572805 -5.54299642 13.04126818 -9 13 C-8.06398754 11.58235006 -7.1261208 10.16592432 -6.1875 8.75 C-5.66542969 7.96109375 -5.14335937 7.1721875 -4.60546875 6.359375 C-3.12865878 4.18907519 -1.59310127 2.08586232 0 0 Z " fill="#F6AF3F" transform="translate(35,36)"/>
<path d="M0 0 C4.10958767 1.45044271 7.43258745 3.51110752 11 6 C8.39953312 11.48842256 5.30976928 16.69023072 1 21 C-2.20212563 21.90570169 -4.77643901 21.73873273 -8 21 C-8.50656782 14.00654987 -8.13822981 9.7475414 -4 4 C-1.75 1.5625 -1.75 1.5625 0 0 Z " fill="#E9F0F1" transform="translate(23,28)"/>
<path d="M0 0 C0.556875 0.495 1.11375 0.99 1.6875 1.5 C1.3575 3.48 1.0275 5.46 0.6875 7.5 C0.0275 7.5 -0.6325 7.5 -1.3125 7.5 C-1.6425 8.49 -1.9725 9.48 -2.3125 10.5 C-2.9725 10.5 -3.6325 10.5 -4.3125 10.5 C-6.50244248 13.78491373 -6.66527339 15.33095639 -6.9375 19.1875 C-7.01226562 20.18136719 -7.08703125 21.17523438 -7.1640625 22.19921875 C-7.21304687 22.95847656 -7.26203125 23.71773437 -7.3125 24.5 C-8.3025 24.5 -9.2925 24.5 -10.3125 24.5 C-10.30347656 23.83613281 -10.29445313 23.17226563 -10.28515625 22.48828125 C-10.34740545 17.15673737 -10.34740545 17.15673737 -12.9375 12.72265625 C-15.06542605 11.19071033 -15.06542605 11.19071033 -18.3125 9.5 C-17.8145163 5.76512223 -17.43758244 3.68762365 -15.3125 0.5 C-4.44678703 -2.8844024 -4.44678703 -2.8844024 0 0 Z " fill="#F0AB3F" transform="translate(20.3125,24.5)"/>
<path d="M0 0 C0 2.97 0 5.94 0 9 C-3.06058259 9.84098442 -6.12313726 10.67300203 -9.1875 11.5 C-10.05181641 11.73847656 -10.91613281 11.97695313 -11.80664062 12.22265625 C-12.64775391 12.44824219 -13.48886719 12.67382812 -14.35546875 12.90625 C-15.12528076 13.11572266 -15.89509277 13.32519531 -16.68823242 13.54101562 C-19.17823523 14.03538729 -21.46781499 14.07833519 -24 14 C-24 11.03 -24 8.06 -24 5 C-22.35 4.67 -20.7 4.34 -19 4 C-19 3.34 -19 2.68 -19 2 C-17.2675 1.814375 -17.2675 1.814375 -15.5 1.625 C-12.47317755 1.25941576 -9.62646713 0.68198912 -6.6875 -0.125 C-3 -1 -3 -1 0 0 Z " fill="#D7DEE0" transform="translate(28,9)"/>
<path d="M0 0 C0 1.32 0 2.64 0 4 C0.66 4 1.32 4 2 4 C1.34 3.34 0.68 2.68 0 2 C0.99 1.01 1.98 0.02 3 -1 C3.66 -0.67 4.32 -0.34 5 0 C4.67 0.33 4.34 0.66 4 1 C6.31 1.33 8.62 1.66 11 2 C9.625 4 9.625 4 8 6 C7.34 6 6.68 6 6 6 C6 5.34 6 4.68 6 4 C5.34 4 4.68 4 4 4 C4.33 4.99 4.66 5.98 5 7 C6.3921875 6.7525 6.3921875 6.7525 7.8125 6.5 C13.28358209 5.64179104 13.28358209 5.64179104 16 7 C15.01 8.485 15.01 8.485 14 10 C14.66 10.33 15.32 10.66 16 11 C14.8125 12.5625 14.8125 12.5625 13 14 C7.7024408 13.8418639 3.82709307 10.40069397 -0.3125 7.4375 C-1.05306641 6.91736328 -1.79363281 6.39722656 -2.55664062 5.86132812 C-4.37648184 4.58156882 -6.19054184 3.29437782 -8 2 C-7.67 1.34 -7.34 0.68 -7 0 C-2.52459016 -1.26229508 -2.52459016 -1.26229508 0 0 Z " fill="#9D999F" transform="translate(28,21)"/>
<path d="M0 0 C1.42258812 3.82320557 2.24042276 6.91281305 2 11 C2.598125 11.061875 3.19625 11.12375 3.8125 11.1875 C6.87143458 12.3236757 7.55041099 14.17330142 9 17 C7.1875 17.625 7.1875 17.625 5 18 C4.01 17.34 3.02 16.68 2 16 C1.34 16.33 0.68 16.66 0 17 C0.66 17.66 1.32 18.32 2 19 C0.68 19 -0.64 19 -2 19 C-2 17.68 -2 16.36 -2 15 C-2.99 14.34 -3.98 13.68 -5 13 C-3.68 12.67 -2.36 12.34 -1 12 C-1.33 9.03 -1.66 6.06 -2 3 C-9.425 4.485 -9.425 4.485 -17 6 C-17 5.01 -17 4.02 -17 3 C-5.47835991 -0.44419134 -5.47835991 -0.44419134 0 0 Z " fill="#0D0D0D" transform="translate(29,6)"/>
<path d="M0 0 C0 0.99 0 1.98 0 3 C-2.61426148 4.30713074 -4.83508003 4.29697075 -7.75 4.5 C-11.88456723 4.8130742 -15.92411682 5.20746716 -20 6 C-19.77083777 2.90630991 -18.66577567 1.56365157 -16.75 -0.9375 C-11.88032187 -4.89561276 -5.3590705 -1.6935935 0 0 Z " fill="#E0E7E8" transform="translate(59,35)"/>
<path d="M0 0 C0 0.66 0 1.32 0 2 C-1.32 2.33 -2.64 2.66 -4 3 C-4.05399736 4.45792884 -4.09279177 5.91642712 -4.125 7.375 C-4.14820313 8.18710937 -4.17140625 8.99921875 -4.1953125 9.8359375 C-4.21370051 12.21342243 -4.21370051 12.21342243 -2 14 C-2.66 14 -3.32 14 -4 14 C-5.49821059 17.37097383 -6 19.20442119 -6 23 C-5.34 23.66 -4.68 24.32 -4 25 C-4.66 25.33 -5.32 25.66 -6 26 C-6.66 25.67 -7.32 25.34 -8 25 C-8 29.29 -8 33.58 -8 38 C-8.33 38 -8.66 38 -9 38 C-9.05834353 34.77090994 -9.09371115 31.54195662 -9.125 28.3125 C-9.15013672 26.94448242 -9.15013672 26.94448242 -9.17578125 25.54882812 C-9.21025995 20.80800718 -8.99084408 17.37483805 -7 13 C-7.33 12.01 -7.66 11.02 -8 10 C-8.44781145 3.73063973 -8.44781145 3.73063973 -6.8125 1.0625 C-4.43958382 -0.32851983 -2.70313576 -0.21917317 0 0 Z " fill="#090806" transform="translate(9,11)"/>
<path d="M0 0 C0.30848877 0.64743164 0.61697754 1.29486328 0.93481445 1.96191406 C4.19001694 5.1744014 7.63542996 4.60307427 12.04296875 4.609375 C13.36836418 4.63417938 13.36836418 4.63417938 14.72053528 4.65948486 C17.54292678 4.70807285 20.36477912 4.72935941 23.1875 4.75 C25.10093874 4.7781507 27.01435225 4.80807686 28.92773438 4.83984375 C33.61844521 4.91383455 38.30885483 4.96334302 43 5 C43 5.66 43 6.32 43 7 C37.19760386 7.04934656 31.39532919 7.08569402 25.59277344 7.10986328 C23.61781691 7.11993627 21.64287534 7.13359521 19.66796875 7.15087891 C16.83329582 7.17507039 13.99881962 7.18646991 11.1640625 7.1953125 C10.27756012 7.20563507 9.39105774 7.21595764 8.47769165 7.22659302 C6.31714048 7.2269907 4.15706282 7.12272534 2 7 C0 5 0 5 -0.125 2.375 C-0.08375 1.59125 -0.0425 0.8075 0 0 Z " fill="#000000" transform="translate(0,51)"/>
<path d="M0 0 C0 0.33 0 0.66 0 1 C-1.65 1.33 -3.3 1.66 -5 2 C-3.88625 2.86625 -3.88625 2.86625 -2.75 3.75 C-0.33912357 5.72253526 1.84042701 7.76044282 4 10 C0.89448334 10 -0.35261084 9.4606285 -3 8 C-3.33 8.99 -3.66 9.98 -4 11 C-4.66 11 -5.32 11 -6 11 C-5.67 9.35 -5.34 7.7 -5 6 C-8.56263826 3.62490783 -9.46170488 3.93211359 -13.5625 4.5 C-16.50390625 4.90625 -16.50390625 4.90625 -19 5 C-19.66 4.34 -20.32 3.68 -21 3 C-18.44048255 2.29921555 -15.87840298 1.61414804 -13.3125 0.9375 C-12.2306543 0.63875977 -12.2306543 0.63875977 -11.12695312 0.33398438 C-7.07613527 -0.72033808 -4.1176542 -1.29133534 0 0 Z " fill="#211E1B" transform="translate(26,20)"/>
<path d="M0 0 C3 1.4375 3 1.4375 6 4 C6.53698855 7.05872891 6.35474551 9.92553889 6 13 C4.02 13 2.04 13 0 13 C0 8.71 0 4.42 0 0 Z " fill="#EBF2F3" transform="translate(2,36)"/>
<path d="M0 0 C0 2.97 0 5.94 0 9 C-2.64 9.66 -5.28 10.32 -8 11 C-7.60246179 9.53633658 -7.18118616 8.0791065 -6.75 6.625 C-6.51796875 5.81289063 -6.2859375 5.00078125 -6.046875 4.1640625 C-4.80598155 1.59893201 -3.01894546 0 0 0 Z " fill="#F39F13" transform="translate(62,38)"/>
<path d="M0 0 C0.33 0 0.66 0 1 0 C1 1.98 1 3.96 1 6 C-5.43441926 10.35178114 -10.25189832 11.72790099 -18 11 C-17.67 10.34 -17.34 9.68 -17 9 C-14.890625 8.47265625 -14.890625 8.47265625 -12.25 8.0625 C-8.26342305 7.32783082 -5.21380762 6.61121869 -2 4 C-0.67206394 1.93299345 -0.67206394 1.93299345 0 0 Z " fill="#030303" transform="translate(63,47)"/>
<path d="M0 0 C0.598125 0.165 1.19625 0.33 1.8125 0.5 C4.11344336 1.1114124 4.11344336 1.1114124 7 1 C6.01 2.485 6.01 2.485 5 4 C5.66 4.33 6.32 4.66 7 5 C5.8125 6.5625 5.8125 6.5625 4 8 C1.32520673 7.73904456 -0.60095141 7.1995243 -3 6 C-3 5.01 -3 4.02 -3 3 C-2.34 3 -1.68 3 -1 3 C-0.67 2.01 -0.34 1.02 0 0 Z " fill="#99929A" transform="translate(37,27)"/>
<path d="M0 0 C0 0.66 0 1.32 0 2 C-3.55729974 4.10406701 -6.99996473 4.65194013 -11.0625 5.25 C-12.90521484 5.53617188 -12.90521484 5.53617188 -14.78515625 5.828125 C-18 6 -18 6 -21 4 C-17.19911585 2.26466103 -13.97262286 1.68038916 -9.8125 1.4375 C-6.39857796 1.23123344 -3.23301595 0 0 0 Z " fill="#2B2821" transform="translate(61,37)"/>
<path d="M0 0 C-1.02613084 2.97577944 -1.96631091 3.97754061 -4.625 5.75 C-8.74868017 7.27728895 -11.63323514 7.22586715 -16 7 C-16 6.67 -16 6.34 -16 6 C-15.0925 5.731875 -14.185 5.46375 -13.25 5.1875 C-10.24164622 4.08829381 -8.49641383 2.91391727 -6 1 C-3.86604641 0.30960325 -2.23825902 0 0 0 Z " fill="#958A95" transform="translate(62,49)"/>
<path d="M0 0 C0.33 0.99 0.66 1.98 1 3 C0.01 4.485 0.01 4.485 -1 6 C-1.45601261 8.50896686 -1.45601261 8.50896686 -1.625 11.1875 C-1.69976562 12.08855469 -1.77453125 12.98960938 -1.8515625 13.91796875 C-1.90054687 14.60503906 -1.94953125 15.29210938 -2 16 C-2.33 16 -2.66 16 -3 16 C-4.61050328 6.00437637 -4.61050328 6.00437637 -2.0625 1.8125 C-1.381875 1.214375 -0.70125 0.61625 0 0 Z " fill="#46423B" transform="translate(17,33)"/>
<path d="M0 0 C3.7910119 1.44950455 7.3874638 3.15172566 11 5 C8 7 8 7 5.8125 6.625 C5.214375 6.41875 4.61625 6.2125 4 6 C4 5.34 4 4.68 4 4 C2.70766393 2.62689293 1.37562854 1.28965176 0 0 Z " fill="#111010" transform="translate(29,30)"/>
<path d="M0 0 C4.875 1.75 4.875 1.75 6 4 C5.91348369 5.54613014 5.75997364 7.08909387 5.5625 8.625 C5.46066406 9.44226562 5.35882812 10.25953125 5.25390625 11.1015625 C5.17011719 11.72804688 5.08632812 12.35453125 5 13 C4.67 13 4.34 13 4 13 C3.96261719 12.37351562 3.92523438 11.74703125 3.88671875 11.1015625 C3.82097656 10.28429688 3.75523438 9.46703125 3.6875 8.625 C3.62949219 7.81289063 3.57148437 7.00078125 3.51171875 6.1640625 C3.17009472 3.62078662 3.17009472 3.62078662 0 2 C0 1.34 0 0.68 0 0 Z " fill="#353431" transform="translate(4,36)"/>
<path d="M0 0 C0.66 0.33 1.32 0.66 2 1 C0.515 3.475 0.515 3.475 -1 6 C-2.32 5.67 -3.64 5.34 -5 5 C-5 4.01 -5 3.02 -5 2 C-2.625 0.9375 -2.625 0.9375 0 0 Z " fill="#686A6B" transform="translate(42,27)"/>
</svg>
